<svg width="120" height="120" viewBox="0 0 120 120" fill="none" xmlns="http://www.w3.org/2000/svg">
<circle cx="60" cy="60" r="60" fill="#FFFDFD"/>
<path d="M46.8789 57.7656C46.8268 58.1172 46.7227 58.944 46.5664 60.2461C46.4232 61.5482 46.2604 62.9154 46.0781 64.3477C45.8958 65.7799 45.694 67.2188 45.4727 68.6641C45.2513 70.0964 44.9974 71.2812 44.7109 72.2188C44.4245 73.1562 44.138 73.625 43.8516 73.625C43.2917 73.625 42.4648 73.612 41.3711 73.5859C40.2773 73.5599 39.4505 73.5469 38.8906 73.5469C36.3776 73.5469 34.0599 73.599 31.9375 73.7031C31.7552 73.612 31.5924 73.4688 31.4492 73.2734C31.319 73.0781 31.2083 72.8438 31.1172 72.5703C31.0391 72.2969 30.974 72.056 30.9219 71.8477C30.8828 71.6263 30.8372 71.3529 30.7852 71.0273C30.7461 70.6888 30.7135 70.4609 30.6875 70.3438C28.4349 59.6016 27.0417 53.0651 26.5078 50.7344L25.1406 44.1719C25.1406 43.8073 25.3229 43.5599 25.6875 43.4297C26 43.4557 26.4948 43.4688 27.1719 43.4688H28.7344C29.0469 43.4688 29.4961 43.4557 30.082 43.4297C30.668 43.4036 31.0911 43.3906 31.3516 43.3906C31.599 43.3776 31.9635 43.3841 32.4453 43.4102C32.9271 43.4232 33.2396 43.4297 33.3828 43.4297H34.5156C34.6458 43.4557 34.8411 43.4688 35.1016 43.4688H35.6875C35.9219 43.5339 36.1562 43.9831 36.3906 44.8164C36.625 45.6497 36.8464 46.7956 37.0547 48.2539C37.263 49.7122 37.4323 50.9883 37.5625 52.082C37.6927 53.1628 37.8359 54.4779 37.9922 56.0273C38.1615 57.5638 38.2461 58.3451 38.2461 58.3711L40.7266 43.5078C41.3516 43.5599 41.8464 43.5859 42.2109 43.5859H43.4219C44.4766 43.5859 46 43.5794 47.9922 43.5664C49.9974 43.5534 51.4948 43.5469 52.4844 43.5469C52.7578 43.5469 52.9271 43.651 52.9922 43.8594L55.4336 60.0117C55.681 57.043 55.987 54.3281 56.3516 51.8672L57.5234 43.9375C57.6146 43.625 58.0703 43.4688 58.8906 43.4688H59.8281C59.9844 43.4557 60.2253 43.4622 60.5508 43.4883C60.8893 43.5013 61.1302 43.5078 61.2734 43.5078H62.9922C63.474 43.5078 64.0143 43.5143 64.6133 43.5273C65.2253 43.5404 65.5443 43.5469 65.5703 43.5469H67.875C67.9922 43.5469 68.0703 43.638 68.1094 43.8203C68.1484 43.9896 68.181 44.276 68.207 44.6797L61.918 73.4297C61.6576 73.4557 61.3451 73.4688 60.9805 73.4688C60.6159 73.4688 60.2839 73.4622 59.9844 73.4492C59.6849 73.4492 59.3398 73.4427 58.9492 73.4297C58.5586 73.4297 58.2396 73.4297 57.9922 73.4297C57.4583 73.4297 56.6445 73.4232 55.5508 73.4102C54.4701 73.3971 53.6562 73.3906 53.1094 73.3906C53.0443 73.3906 51.7747 73.4297 49.3008 73.5078L46.8789 57.7656ZM67.2891 49.6016C67.2891 49.3672 67.3021 49.0221 67.3281 48.5664C67.3542 48.0977 67.3672 47.7786 67.3672 47.6094C67.3672 47.5443 67.3542 47.3099 67.3281 46.9062C67.3021 46.5026 67.2891 46.151 67.2891 45.8516C67.2891 44.4714 67.4193 43.7812 67.6797 43.7812C67.7839 43.7812 67.875 43.7943 67.9531 43.8203C70.6745 43.8203 74.7044 43.7878 80.043 43.7227C85.3945 43.6576 89.3984 43.625 92.0547 43.625C92.7188 43.625 93.1354 43.6836 93.3047 43.8008C93.487 43.918 93.5781 44.1458 93.5781 44.4844V45.0312C93.5781 45.7083 93.5846 46.7109 93.5977 48.0391C93.6107 49.3542 93.6172 50.3568 93.6172 51.0469C93.6172 51.724 93.4349 52.0625 93.0703 52.0625C92.3411 52.0625 91.2539 52.0495 89.8086 52.0234C88.3633 51.9974 87.276 51.9844 86.5469 51.9844V72.9219C86.4557 73.3125 86.2344 73.5208 85.8828 73.5469C85.4271 73.5469 84.763 73.5404 83.8906 73.5273C83.0182 73.5143 82.3542 73.5078 81.8984 73.5078C81.8724 73.5078 81.8464 73.5208 81.8203 73.5469C81.2474 73.5469 80.4401 73.5404 79.3984 73.5273C78.3698 73.5143 77.6016 73.5078 77.0938 73.5078H75.9219C75.6615 73.5339 75.2839 73.5469 74.7891 73.5469L74.0078 72.6094C74.0078 70.6302 74.0729 67.6875 74.2031 63.7812C74.3333 59.875 74.3984 56.9323 74.3984 54.9531C74.3984 54.862 74.3919 54.7122 74.3789 54.5039C74.3789 54.2956 74.3789 54.1263 74.3789 53.9961C74.3789 53.8659 74.3659 53.7031 74.3398 53.5078C74.3268 53.3125 74.2943 53.1562 74.2422 53.0391C74.2031 52.9089 74.151 52.7852 74.0859 52.668C74.0208 52.5378 73.9297 52.4466 73.8125 52.3945C73.7083 52.3294 73.5781 52.2969 73.4219 52.2969H67.8359C67.4714 52.1927 67.2891 51.2943 67.2891 49.6016Z" fill="#20CC7A"/>
</svg>
