<svg width="121" height="105" viewBox="0 0 121 105" fill="none" xmlns="http://www.w3.org/2000/svg">
<ellipse cx="60.5" cy="52.5" rx="60.5" ry="52.5" fill="#20CC7A"/>
<path d="M47.0956 54.1406C47.0435 54.4922 46.9393 55.319 46.7831 56.6211C46.6399 57.9232 46.4771 59.2904 46.2948 60.7227C46.1125 62.1549 45.9107 63.5938 45.6893 65.0391C45.468 66.4714 45.2141 67.6562 44.9276 68.5938C44.6412 69.5312 44.3547 70 44.0682 70C43.5083 70 42.6815 69.987 41.5878 69.9609C40.494 69.9349 39.6672 69.9219 39.1073 69.9219C36.5943 69.9219 34.2766 69.974 32.1542 70.0781C31.9719 69.987 31.8091 69.8438 31.6659 69.6484C31.5357 69.4531 31.425 69.2188 31.3339 68.9453C31.2557 68.6719 31.1906 68.431 31.1385 68.2227C31.0995 68.0013 31.0539 67.7279 31.0018 67.4023C30.9628 67.0638 30.9302 66.8359 30.9042 66.7188C28.6516 55.9766 27.2583 49.4401 26.7245 47.1094L25.3573 40.5469C25.3573 40.1823 25.5396 39.9349 25.9042 39.8047C26.2167 39.8307 26.7115 39.8438 27.3885 39.8438H28.951C29.2635 39.8438 29.7128 39.8307 30.2987 39.8047C30.8846 39.7786 31.3078 39.7656 31.5682 39.7656C31.8156 39.7526 32.1802 39.7591 32.662 39.7852C33.1438 39.7982 33.4563 39.8047 33.5995 39.8047H34.7323C34.8625 39.8307 35.0578 39.8438 35.3182 39.8438H35.9042C36.1385 39.9089 36.3729 40.3581 36.6073 41.1914C36.8417 42.0247 37.063 43.1706 37.2714 44.6289C37.4797 46.0872 37.649 47.3633 37.7792 48.457C37.9094 49.5378 38.0526 50.8529 38.2089 52.4023C38.3781 53.9388 38.4628 54.7201 38.4628 54.7461L40.9432 39.8828C41.5682 39.9349 42.063 39.9609 42.4276 39.9609H43.6385C44.6932 39.9609 46.2167 39.9544 48.2089 39.9414C50.2141 39.9284 51.7115 39.9219 52.701 39.9219C52.9745 39.9219 53.1438 40.026 53.2089 40.2344L55.6503 56.3867C55.8977 53.418 56.2037 50.7031 56.5682 48.2422L57.7401 40.3125C57.8313 40 58.287 39.8438 59.1073 39.8438H60.0448C60.201 39.8307 60.4419 39.8372 60.7675 39.8633C61.106 39.8763 61.3469 39.8828 61.4901 39.8828H63.2089C63.6906 39.8828 64.231 39.8893 64.83 39.9023C65.4419 39.9154 65.7609 39.9219 65.787 39.9219H68.0917C68.2089 39.9219 68.287 40.013 68.326 40.1953C68.3651 40.3646 68.3977 40.651 68.4237 41.0547L62.1346 69.8047C61.8742 69.8307 61.5617 69.8438 61.1971 69.8438C60.8326 69.8438 60.5005 69.8372 60.201 69.8242C59.9016 69.8242 59.5565 69.8177 59.1659 69.8047C58.7753 69.8047 58.4563 69.8047 58.2089 69.8047C57.675 69.8047 56.8612 69.7982 55.7675 69.7852C54.6867 69.7721 53.8729 69.7656 53.326 69.7656C53.2609 69.7656 51.9914 69.8047 49.5175 69.8828L47.0956 54.1406ZM67.5057 45.9766C67.5057 45.7422 67.5188 45.3971 67.5448 44.9414C67.5708 44.4727 67.5839 44.1536 67.5839 43.9844C67.5839 43.9193 67.5708 43.6849 67.5448 43.2812C67.5188 42.8776 67.5057 42.526 67.5057 42.2266C67.5057 40.8464 67.6359 40.1562 67.8964 40.1562C68.0005 40.1562 68.0917 40.1693 68.1698 40.1953C70.8912 40.1953 74.9211 40.1628 80.2596 40.0977C85.6112 40.0326 89.6151 40 92.2714 40C92.9354 40 93.3521 40.0586 93.5214 40.1758C93.7037 40.293 93.7948 40.5208 93.7948 40.8594V41.4062C93.7948 42.0833 93.8013 43.0859 93.8143 44.4141C93.8274 45.7292 93.8339 46.7318 93.8339 47.4219C93.8339 48.099 93.6516 48.4375 93.287 48.4375C92.5578 48.4375 91.4706 48.4245 90.0253 48.3984C88.58 48.3724 87.4927 48.3594 86.7635 48.3594V69.2969C86.6724 69.6875 86.451 69.8958 86.0995 69.9219C85.6438 69.9219 84.9797 69.9154 84.1073 69.9023C83.2349 69.8893 82.5708 69.8828 82.1151 69.8828C82.0891 69.8828 82.063 69.8958 82.037 69.9219C81.4641 69.9219 80.6568 69.9154 79.6151 69.9023C78.5865 69.8893 77.8182 69.8828 77.3104 69.8828H76.1385C75.8781 69.9089 75.5005 69.9219 75.0057 69.9219L74.2245 68.9844C74.2245 67.0052 74.2896 64.0625 74.4198 60.1562C74.55 56.25 74.6151 53.3073 74.6151 51.3281C74.6151 51.237 74.6086 51.0872 74.5956 50.8789C74.5956 50.6706 74.5956 50.5013 74.5956 50.3711C74.5956 50.2409 74.5826 50.0781 74.5565 49.8828C74.5435 49.6875 74.5109 49.5312 74.4589 49.4141C74.4198 49.2839 74.3677 49.1602 74.3026 49.043C74.2375 48.9128 74.1464 48.8216 74.0292 48.7695C73.925 48.7044 73.7948 48.6719 73.6385 48.6719H68.0526C67.688 48.5677 67.5057 47.6693 67.5057 45.9766Z" fill="white"/>
</svg>
