<svg width="14" height="14" viewBox="0 0 14 14" fill="none" xmlns="http://www.w3.org/2000/svg">
<path d="M5.76953 7.41016H8.23047V8.23047H5.76953V7.41016Z" fill="white"/>
<path d="M11.358 8.23048H9.05078V8.64064C9.05078 8.86729 8.86728 9.0508 8.64062 9.0508H5.35938C5.13272 9.0508 4.94922 8.86729 4.94922 8.64064V8.23048H2.64198C2.11166 8.23048 1.64265 7.89243 1.47475 7.38934L0 2.96436V11.9219C0 12.6004 0.552002 13.1524 1.23047 13.1524H12.7695C13.448 13.1524 14 12.6004 14 11.9219V2.96468L12.5251 7.38934C12.3573 7.89243 11.8883 8.23048 11.358 8.23048Z" fill="white"/>
<path d="M8.64049 0.847656H5.35924C4.68077 0.847656 4.12877 1.39966 4.12877 2.07812V2.48828H0.705566L2.25252 7.12978C2.30859 7.29758 2.46518 7.41016 2.64185 7.41016H4.94908V7C4.94908 6.77335 5.13258 6.58984 5.35924 6.58984H8.64049C8.86714 6.58984 9.05064 6.77335 9.05064 7V7.41016H11.3579C11.5345 7.41016 11.6911 7.29758 11.7472 7.12978L13.2943 2.48828H9.87096V2.07812C9.87096 1.39966 9.31895 0.847656 8.64049 0.847656ZM4.94908 2.48828V2.07812C4.94908 1.85179 5.1329 1.66797 5.35924 1.66797H8.64049C8.86682 1.66797 9.05064 1.85179 9.05064 2.07812V2.48828H4.94908Z" fill="white"/>
</svg>
