<svg width="20" height="20" viewBox="0 0 20 20" fill="none" xmlns="http://www.w3.org/2000/svg">
<path d="M18 18C18 19.1046 17.1046 20 16 20C14.8954 20 14 19.1046 14 18C14 16.8954 14.8954 16 16 16C17.1046 16 18 16.8954 18 18ZM6 16C4.89543 16 4 16.8954 4 18C4 19.1046 4.89543 20 6 20C7.10457 20 8 19.1046 8 18C8 16.8954 7.10457 16 6 16ZM19.5 1.99999H3.72L3.16 0.999985C2.80132 0.378717 2.13737 -0.0028627 1.42 -1.46857e-05H0.5C0.223858 -1.46857e-05 0 0.223843 0 0.499985V1.49999C0 1.77613 0.223858 1.99999 0.5 1.99999H1.42L5.7 9.48999C5.77797 9.61546 5.86843 9.73272 5.97 9.83999L4.11 13.54C3.99438 13.7625 3.99438 14.0274 4.11 14.25L4.33 14.63C4.4704 14.865 4.72633 15.0063 5 15H17.5C17.7761 15 18 14.7761 18 14.5V13.5C18 13.2238 17.7761 13 17.5 13H6.62L7.62 10.91C7.82904 10.9651 8.04386 10.9953 8.26 11H14.49C15.5357 10.979 16.4915 10.404 17 9.48999L19.35 5.35999C19.7687 4.64343 19.9928 3.82986 20 2.99999V2.49999C20 2.22384 19.7761 1.99999 19.5 1.99999Z" fill="white" fill-opacity="0.62"/>
</svg>
