<svg width="18" height="18" viewBox="0 0 18 18" fill="none" xmlns="http://www.w3.org/2000/svg">
<path d="M18 9.24V17C18 17.5523 17.5523 18 17 18H13C12.4477 18 12 17.5523 12 17V11.5C12 11.2239 11.7761 11 11.5 11H6.5C6.22386 11 6 11.2239 6 11.5V17C6 17.5523 5.55228 18 5 18H1C0.447715 18 0 17.5523 0 17V9.24C0.00070021 8.44462 0.31723 7.68207 0.88 7.12L7.71 0.29C7.89626 0.105256 8.14766 0.00110462 8.41 0H9.59C9.85234 0.00110462 10.1037 0.105256 10.29 0.29L17.12 7.12C17.6828 7.68207 17.9993 8.44462 18 9.24Z" fill="white"/>
</svg>
