<svg width="17" height="16" viewBox="0 0 17 16" fill="none" xmlns="http://www.w3.org/2000/svg">
<path d="M4.00142 4C4.00142 1.79086 5.79295 0 8.00293 0C10.2129 0 12.0044 1.79086 12.0044 4C12.0044 6.20914 10.2129 8 8.00293 8C6.94166 8 5.92386 7.57857 5.17343 6.82843C4.423 6.07828 4.00142 5.06087 4.00142 4ZM15.8959 14.55L14.4554 11.66C13.9464 10.6408 12.9039 9.99776 11.7644 10H4.24151C3.10197 9.99776 2.05948 10.6408 1.55049 11.66L0.109945 14.55C-0.0460833 14.8595 -0.0306538 15.2277 0.150723 15.5231C0.3321 15.8185 0.653557 15.999 1.00028 16H15.0056C15.3523 15.999 15.6738 15.8185 15.8551 15.5231C16.0365 15.2277 16.0519 14.8595 15.8959 14.55Z" fill="white" fill-opacity="0.6"/>
</svg>
