<svg width="24" height="24" viewBox="0 0 24 24" fill="none" xmlns="http://www.w3.org/2000/svg">
<g clip-path="url(#clip0_45_538)">
<path d="M13 13.5C13 13.7761 12.7761 14 12.5 14H8.5C8.22386 14 8 13.7761 8 13.5V12.5C8 12.2239 8.22386 12 8.5 12H12.5C12.7761 12 13 12.2239 13 12.5V13.5ZM16 9.5C16 9.77614 15.7761 10 15.5 10H8.5C8.22386 10 8 9.77614 8 9.5V8.5C8 8.22386 8.22386 8 8.5 8H15.5C15.7761 8 16 8.22386 16 8.5V9.5ZM19 2H5C4.44772 2 4 2.44772 4 3V19.26C4.00368 19.5248 4.10727 19.7784 4.29 19.97L6.18 21.85C6.27028 21.9471 6.3974 22.0016 6.53 22H6.82C6.9526 22.0016 7.07972 21.9471 7.17 21.85L9 20C9.09232 19.9058 9.21812 19.8519 9.35 19.85C9.48166 19.8529 9.60707 19.9067 9.7 20L11.51 21.81C11.6003 21.9071 11.7274 21.9616 11.86 21.96H12.15C12.2826 21.9616 12.4097 21.9071 12.5 21.81L14.32 20C14.4123 19.9058 14.5381 19.8519 14.67 19.85C14.7947 19.8579 14.9121 19.9113 15 20L16.81 21.81C16.9003 21.9071 17.0274 21.9616 17.16 21.96H17.45C17.5826 21.9616 17.7097 21.9071 17.8 21.81L19.71 20C19.8947 19.8137 19.9989 19.5623 20 19.3V3C20 2.44772 19.5523 2 19 2ZM18 18.86L17.34 19.52L16.6 18.79L16.44 18.63L16.1 18.29C15.9137 18.1053 15.6623 18.0011 15.4 18H14C13.7342 17.9985 13.4787 18.1028 13.29 18.29L12 19.53L10.76 18.29C10.5737 18.1053 10.3223 18.0011 10.06 18H8.61C8.34766 18.0011 8.09626 18.1053 7.91 18.29L6.68 19.52L6 18.84V4H18V18.86Z" fill="#A6EBCA"/>
</g>
<defs>
<clipPath id="clip0_45_538">
<rect width="24" height="24" fill="white"/>
</clipPath>
</defs>
</svg>
